<svg width="25" height="24" viewBox="0 0 25 24" fill="none" xmlns="http://www.w3.org/2000/svg">
<path d="M11.9863 20.9302C11.7207 20.9302 11.491 20.8555 11.2974 20.7061C11.1092 20.5566 10.9847 20.3491 10.9238 20.0835L10.5171 18.3652C10.3898 18.321 10.2625 18.2739 10.1353 18.2241C10.0135 18.1743 9.8973 18.1245 9.78662 18.0747L8.29248 18.9961C8.07113 19.1344 7.8387 19.1925 7.59521 19.1704C7.35173 19.1483 7.1359 19.0431 6.94775 18.855L5.88525 17.8008C5.70264 17.6126 5.59749 17.394 5.56982 17.145C5.54769 16.8905 5.61133 16.6525 5.76074 16.4312L6.66553 14.9453C6.61572 14.8291 6.56592 14.7129 6.51611 14.5967C6.47184 14.4805 6.43034 14.3615 6.3916 14.2397L4.66504 13.833C4.39941 13.7777 4.19189 13.6559 4.04248 13.4678C3.89307 13.2741 3.81836 13.0417 3.81836 12.7705V11.2847C3.81836 11.0246 3.89307 10.8005 4.04248 10.6123C4.19189 10.4186 4.39941 10.2913 4.66504 10.2305L6.375 9.82373C6.41374 9.68538 6.45801 9.55811 6.50781 9.44189C6.56315 9.32568 6.61296 9.21501 6.65723 9.10986L5.74414 7.59082C5.59473 7.36393 5.53109 7.12874 5.55322 6.88525C5.57536 6.64176 5.68327 6.42871 5.87695 6.24609L6.94775 5.18359C7.14144 5.00651 7.35173 4.90413 7.57861 4.87646C7.8055 4.8488 8.03239 4.89583 8.25928 5.01758L9.77832 5.96387C9.889 5.90853 10.008 5.85596 10.1353 5.80615C10.2625 5.75081 10.3898 5.70101 10.5171 5.65674L10.9238 3.93018C10.9847 3.67008 11.1092 3.46533 11.2974 3.31592C11.491 3.16097 11.7207 3.0835 11.9863 3.0835H13.5054C13.771 3.0835 13.9979 3.16097 14.186 3.31592C14.3797 3.46533 14.5042 3.67008 14.5596 3.93018L14.9746 5.67334C15.1074 5.71761 15.2347 5.76465 15.3564 5.81445C15.4782 5.86426 15.5916 5.91683 15.6968 5.97217L17.2407 5.01758C17.4621 4.89583 17.6862 4.85156 17.9131 4.88477C18.14 4.91243 18.3475 5.00928 18.5356 5.17529L19.6147 6.24609C19.8084 6.42871 19.9136 6.64176 19.9302 6.88525C19.9523 7.12874 19.8942 7.36393 19.7559 7.59082L18.8345 9.10986C18.8787 9.21501 18.9258 9.32568 18.9756 9.44189C19.0254 9.55811 19.0724 9.68538 19.1167 9.82373L20.835 10.2305C21.0951 10.2913 21.2998 10.4186 21.4492 10.6123C21.5986 10.8005 21.6733 11.0246 21.6733 11.2847V12.7705C21.6733 13.0417 21.5986 13.2741 21.4492 13.4678C21.2998 13.6559 21.0951 13.7777 20.835 13.833L19.1001 14.2397C19.0614 14.3615 19.0171 14.4805 18.9673 14.5967C18.923 14.7129 18.8732 14.8291 18.8179 14.9453L19.731 16.4312C19.8804 16.6525 19.944 16.8905 19.9219 17.145C19.8997 17.394 19.7946 17.6126 19.6064 17.8008L18.5439 18.855C18.3558 19.0431 18.14 19.1483 17.8965 19.1704C17.653 19.1925 17.4206 19.1344 17.1992 18.9961L15.6968 18.0747C15.5861 18.1245 15.4699 18.1743 15.3481 18.2241C15.2264 18.2739 15.1019 18.321 14.9746 18.3652L14.5596 20.0835C14.5042 20.3491 14.3797 20.5566 14.186 20.7061C13.9979 20.8555 13.771 20.9302 13.5054 20.9302H11.9863ZM12.75 14.8955C13.2757 14.8955 13.7572 14.7655 14.1943 14.5054C14.6315 14.2453 14.9801 13.8966 15.2402 13.4595C15.5003 13.0168 15.6304 12.5298 15.6304 11.9985C15.6304 11.4728 15.5003 10.9941 15.2402 10.5625C14.9801 10.1253 14.6315 9.77669 14.1943 9.5166C13.7572 9.25651 13.2757 9.12646 12.75 9.12646C12.2188 9.12646 11.7345 9.25651 11.2974 9.5166C10.8657 9.77669 10.5171 10.1253 10.2515 10.5625C9.99137 10.9941 9.86133 11.4728 9.86133 11.9985C9.86133 12.5298 9.99137 13.0168 10.2515 13.4595C10.5116 13.8966 10.8602 14.2453 11.2974 14.5054C11.7345 14.7655 12.2188 14.8955 12.75 14.8955Z" fill="#5397FD"/>
</svg>
