<svg width="25" height="24" viewBox="0 0 25 24" fill="none" xmlns="http://www.w3.org/2000/svg">
<path d="M2.75391 11.2847C2.75391 10.853 2.84245 10.4878 3.01953 10.189C3.19661 9.89014 3.4318 9.66602 3.7251 9.5166C4.01839 9.36165 4.34212 9.28418 4.69629 9.28418H4.97852V18.5728C4.97852 18.8162 4.92594 19.0182 4.8208 19.1787C4.71566 19.3447 4.57731 19.4665 4.40576 19.5439C4.23421 19.627 4.05436 19.6712 3.86621 19.6768C3.67806 19.6768 3.49821 19.6353 3.32666 19.5522C3.16064 19.4692 3.0223 19.3447 2.91162 19.1787C2.80648 19.0182 2.75391 18.8162 2.75391 18.5728V11.2847ZM5.79199 21.0547C6.09082 20.8997 6.29834 20.6978 6.41455 20.4487C6.5363 20.1997 6.59717 19.8704 6.59717 19.4609V5.74805C6.59717 4.84049 6.83512 4.14876 7.31104 3.67285C7.79248 3.19694 8.49251 2.95898 9.41113 2.95898H18.9404C19.859 2.95898 20.5563 3.19694 21.0322 3.67285C21.5081 4.14876 21.7461 4.84049 21.7461 5.74805V18.2739C21.7461 19.1815 21.5081 19.8704 21.0322 20.3408C20.5563 20.8167 19.859 21.0547 18.9404 21.0547H5.79199ZM10.2578 8.29639H18.1021C18.2625 8.29639 18.4009 8.24105 18.5171 8.13037C18.6333 8.01416 18.6914 7.87305 18.6914 7.70703C18.6914 7.54655 18.6333 7.41097 18.5171 7.30029C18.4064 7.18962 18.2681 7.13428 18.1021 7.13428H10.2578C10.0863 7.13428 9.94515 7.18962 9.83447 7.30029C9.7238 7.41097 9.66846 7.54655 9.66846 7.70703C9.66846 7.87305 9.7238 8.01416 9.83447 8.13037C9.95068 8.24105 10.0918 8.29639 10.2578 8.29639ZM10.2578 11.127H18.1021C18.2681 11.127 18.4064 11.0716 18.5171 10.9609C18.6333 10.8503 18.6914 10.7119 18.6914 10.5459C18.6914 10.3799 18.6333 10.2415 18.5171 10.1309C18.4009 10.0146 18.2625 9.95654 18.1021 9.95654H10.2578C10.0918 9.95654 9.95068 10.0146 9.83447 10.1309C9.7238 10.2415 9.66846 10.3799 9.66846 10.5459C9.66846 10.7119 9.7238 10.8503 9.83447 10.9609C9.94515 11.0716 10.0863 11.127 10.2578 11.127ZM15.23 13.9575H18.1021C18.2625 13.9575 18.3981 13.9022 18.5088 13.7915C18.6195 13.6808 18.6748 13.5452 18.6748 13.3848C18.6748 13.2188 18.6195 13.0804 18.5088 12.9697C18.3981 12.8535 18.2625 12.7954 18.1021 12.7954H15.23C15.0584 12.7954 14.9173 12.8535 14.8066 12.9697C14.696 13.0804 14.6406 13.2188 14.6406 13.3848C14.6406 13.5452 14.696 13.6808 14.8066 13.7915C14.9229 13.9022 15.064 13.9575 15.23 13.9575ZM15.23 16.7964H18.1021C18.2625 16.7964 18.3981 16.741 18.5088 16.6304C18.6195 16.5197 18.6748 16.3813 18.6748 16.2153C18.6748 16.0493 18.6195 15.911 18.5088 15.8003C18.3981 15.6841 18.2625 15.626 18.1021 15.626H15.23C15.064 15.626 14.9229 15.6841 14.8066 15.8003C14.696 15.911 14.6406 16.0493 14.6406 16.2153C14.6406 16.3813 14.696 16.5197 14.8066 16.6304C14.9173 16.741 15.0584 16.7964 15.23 16.7964ZM10.6646 16.8213H12.5986C12.9085 16.8213 13.152 16.7327 13.3291 16.5557C13.5117 16.373 13.603 16.1268 13.603 15.8169V13.7998C13.603 13.4899 13.5117 13.2464 13.3291 13.0693C13.152 12.8867 12.9085 12.7954 12.5986 12.7954H10.6646C10.3491 12.7954 10.1029 12.8867 9.92578 13.0693C9.7487 13.2464 9.66016 13.4899 9.66016 13.7998V15.8169C9.66016 16.1268 9.7487 16.373 9.92578 16.5557C10.1029 16.7327 10.3491 16.8213 10.6646 16.8213Z" fill="#5397FD"/>
</svg>
