<svg width="25" height="24" viewBox="0 0 25 24" fill="none" xmlns="http://www.w3.org/2000/svg">
<path d="M6.85645 11.4009C6.20345 11.4009 5.71647 11.2404 5.39551 10.9194C5.08008 10.5985 4.92236 10.1032 4.92236 9.43359V6.14648C4.92236 5.48242 5.08008 4.99268 5.39551 4.67725C5.71647 4.35628 6.20345 4.1958 6.85645 4.1958H10.2017C10.8491 4.1958 11.3306 4.35628 11.646 4.67725C11.967 4.99268 12.1274 5.48242 12.1274 6.14648V9.43359C12.1274 10.1032 11.967 10.5985 11.646 10.9194C11.3306 11.2404 10.8491 11.4009 10.2017 11.4009H6.85645ZM15.3066 11.4009C14.6536 11.4009 14.1667 11.2404 13.8457 10.9194C13.5303 10.5985 13.3726 10.1032 13.3726 9.43359V6.14648C13.3726 5.48242 13.5303 4.99268 13.8457 4.67725C14.1667 4.35628 14.6536 4.1958 15.3066 4.1958H18.6436C19.2965 4.1958 19.7808 4.35628 20.0962 4.67725C20.4172 4.99268 20.5776 5.48242 20.5776 6.14648V9.43359C20.5776 10.1032 20.4172 10.5985 20.0962 10.9194C19.7808 11.2404 19.2965 11.4009 18.6436 11.4009H15.3066ZM6.85645 19.8428C6.20345 19.8428 5.71647 19.6823 5.39551 19.3613C5.08008 19.0459 4.92236 18.5534 4.92236 17.8838V14.5967C4.92236 13.9326 5.08008 13.4401 5.39551 13.1191C5.71647 12.7982 6.20345 12.6377 6.85645 12.6377H10.2017C10.8491 12.6377 11.3306 12.7982 11.646 13.1191C11.967 13.4401 12.1274 13.9326 12.1274 14.5967V17.8838C12.1274 18.5534 11.967 19.0459 11.646 19.3613C11.3306 19.6823 10.8491 19.8428 10.2017 19.8428H6.85645ZM15.3066 19.8428C14.6536 19.8428 14.1667 19.6823 13.8457 19.3613C13.5303 19.0459 13.3726 18.5534 13.3726 17.8838V14.5967C13.3726 13.9326 13.5303 13.4401 13.8457 13.1191C14.1667 12.7982 14.6536 12.6377 15.3066 12.6377H18.6436C19.2965 12.6377 19.7808 12.7982 20.0962 13.1191C20.4172 13.4401 20.5776 13.9326 20.5776 14.5967V17.8838C20.5776 18.5534 20.4172 19.0459 20.0962 19.3613C19.7808 19.6823 19.2965 19.8428 18.6436 19.8428H15.3066Z" fill="#5397FD"/>
</svg>
