<svg width="25" height="24" viewBox="0 0 25 24" fill="none" xmlns="http://www.w3.org/2000/svg">
<path d="M10.9468 14.9785H13.5449C14.2533 14.9785 14.6074 14.641 14.6074 13.9658V13.3184C15.4209 13.2575 16.2344 13.1606 17.0479 13.0278C17.8613 12.8895 18.6942 12.7041 19.5464 12.4717C20.4041 12.2393 21.2923 11.9432 22.2109 11.5835V9.85693C21.1872 10.3218 20.1302 10.7008 19.04 10.9941C17.9499 11.2874 16.8348 11.5033 15.6948 11.6416C14.5604 11.7799 13.4093 11.8491 12.2417 11.8491C11.0796 11.8491 9.92855 11.7799 8.78857 11.6416C7.65413 11.5033 6.54183 11.2874 5.45166 10.9941C4.36149 10.7008 3.30452 10.3218 2.28076 9.85693V11.5835C3.20492 11.9432 4.0931 12.2393 4.94531 12.4717C5.79753 12.7041 6.63037 12.8895 7.44385 13.0278C8.25732 13.1606 9.0708 13.2575 9.88428 13.3184V13.9658C9.88428 14.641 10.2384 14.9785 10.9468 14.9785ZM5.05322 20.4238C4.14567 20.4238 3.45671 20.1914 2.98633 19.7266C2.51595 19.2617 2.28076 18.5783 2.28076 17.6763V9.5083C2.28076 8.60075 2.51595 7.91732 2.98633 7.45801C3.45671 6.99316 4.14567 6.76074 5.05322 6.76074H19.4385C20.3516 6.76074 21.0405 6.99316 21.5054 7.45801C21.9757 7.91732 22.2109 8.60075 22.2109 9.5083V17.6763C22.2109 18.5783 21.9757 19.2617 21.5054 19.7266C21.0405 20.1914 20.3516 20.4238 19.4385 20.4238H5.05322ZM7.79248 7.4082V5.93066C7.79248 5.13932 8.01107 4.55273 8.44824 4.1709C8.88542 3.78353 9.49137 3.58984 10.2661 3.58984H14.2173C15.0252 3.58984 15.6395 3.78353 16.0601 4.1709C16.4862 4.55273 16.6992 5.13932 16.6992 5.93066V7.3916H15.0225V5.99707C15.0225 5.71484 14.945 5.49902 14.79 5.34961C14.6351 5.19466 14.4137 5.11719 14.126 5.11719H10.374C10.0807 5.11719 9.85384 5.19466 9.69336 5.34961C9.53841 5.49902 9.46094 5.71484 9.46094 5.99707V7.4082H7.79248Z" fill="#5397FD"/>
</svg>
